Coordinates
version=1
nRows=16
nColumns=36
inDegrees=yes

Units are S.I. units (second, meters, Newtons, ...)
If the header above contains a line with 'inDegrees', this indicates whether rotational values are in degrees (yes) or radians (no).

endheader
time	pelvis_tilt	pelvis_list	pelvis_rotation	pelvis_tx	pelvis_ty	pelvis_tz	hip_flexion_r	hip_adduction_r	hip_rotation_r	knee_angle_r	knee_angle_r_beta	ankle_angle_r	subtalar_angle_r	mtp_angle_r	hip_flexion_l	hip_adduction_l	hip_rotation_l	knee_angle_l	knee_angle_l_beta	ankle_angle_l	subtalar_angle_l	mtp_angle_l	lumbar_extension	lumbar_bending	lumbar_rotation	arm_flex_r	arm_add_r	arm_rot_r	elbow_flex_r	pro_sup_r	arm_flex_l	arm_add_l	arm_rot_l	elbow_flex_l	pro_sup_l
      0.35000000	      6.92257727	     -2.36139121	     -1.75703639	      0.24376548	      1.06186582	     -0.16548562	     -9.97023043	      8.10101660	      1.22044047	      1.38861304	      0.02423587	     10.85858225	     11.63990681	     -6.00945283	     20.92158377	     -3.57942055	     -3.36394086	     60.77491426	      1.06072236	     -1.43100660	    -19.88227986	     -6.00945283	    -10.18374622	      1.63459115	      2.38739051	      1.56440751	    -11.05448290	      4.82876072	     38.85333045	    102.83985708	    -12.28498967	     -7.85794438	      5.97734979	     34.36473264	     92.66610854
      0.36000000	      6.75915913	     -2.36353517	     -2.40811145	      0.25509661	      1.06149624	     -0.16483257	    -10.52884178	      7.94391413	      1.47875946	      1.37035292	      0.02391717	     11.55653833	     12.27062257	     -6.04530041	     21.46076890	     -3.60697006	     -3.66212276	     57.91249032	      1.01076363	     -0.93753160	    -19.17742353	     -6.04530041	    -10.11052788	      1.59778873	      3.11850025	      2.26056219	    -11.30954792	      5.04200127	     39.38930189	    102.88675931	    -13.14526010	     -7.58346835	      5.89986226	     34.15001011	     92.63257975
      0.37000000	      6.59020740	     -2.39939624	     -2.97348983	      0.26651108	      1.06093498	     -0.16432183	    -11.07736284	      7.82247610	      1.64195281	      1.35422098	      0.02363561	     12.18665332	     12.89085096	     -6.07600764	     21.91067104	     -3.62710697	     -3.80143039	     54.82742027	      0.95691900	     -0.52937799	    -18.24090027	     -6.07600764	    -10.00941948	      1.62286372	      3.75909030	      2.93440691	    -11.56005022	      5.30434085	     39.94990042	    102.92783032	    -14.02083227	     -7.30765751	      5.85085499	     33.98996883	     92.58842538
      0.38000000	      6.22464052	     -2.46921893	     -3.41597377	      0.27801664	      1.05990710	     -0.16399993	    -11.40447311	      7.77552498	      1.80039199	      1.35052199	      0.02357106	     12.55247500	     13.24608932	     -6.09128178	     22.52050310	     -3.61557367	     -3.70215561	     51.58190525	      0.90027408	     -0.41536223	    -17.36704976	     -6.09128178	     -9.67798374	      1.71889086	      4.18746686	      3.60344669	    -11.76016680	      5.43079074	     40.52052050	    102.92742761	    -14.96722893	     -7.08534689	      5.87307148	     33.82554555	     92.53603456
      0.39000000	      6.18908206	     -2.51123221	     -3.88496240	      0.28961503	      1.05915706	     -0.16362909	    -12.08416432	      7.66091906	      1.91222374	      1.38086330	      0.02410061	     13.29566949	     13.88329532	     -6.12263890	     22.57251629	     -3.60589352	     -3.68631028	     48.01123021	      0.83795405	     -0.20423223	    -15.94369000	     -6.12263890	     -9.75129264	      1.73280486	      4.68468796	      4.29493246	    -12.02852288	      5.82871068	     41.06534263	    102.99653418	    -15.84236498	     -6.84684694	      5.82732520	     33.79495502	     92.48598235
      0.40000000	      5.82023966	     -2.59071496	     -4.19115140	      0.30132846	      1.05775550	     -0.16346432	    -12.39836613	      7.64969440	      2.00879899	      1.40766416	      0.02456837	     13.68759357	     14.12383695	     -6.13888855	     22.97258700	     -3.55656659	     -3.37334961	     44.35386018	      0.77412090	     -0.46495723	    -14.74177839	     -6.13888855	     -9.40890644	      1.84955091	      4.97754886	      4.92404280	    -12.19910503	      5.99465746	     41.60564050	    103.01335342	    -16.76405964	     -6.64090404	      5.84778402	     33.71866771	     92.43824079
      0.41000000	      5.76970899	     -2.67473321	     -4.52465424	      0.31315757	      1.05665101	     -0.16326392	    -13.05569628	      7.60831602	      2.12695233	      1.46768423	      0.02561592	     14.27981910	     14.52108554	     -6.16993061	     22.82878601	     -3.53871589	     -3.17421100	     40.39554606	      0.70503528	     -0.90199019	    -13.37127031	     -6.16993061	     -9.43539222	      1.94122915	      5.26766529	      5.62757921	    -12.40111064	      6.36542667	     42.09972426	    103.10936209	    -17.67191925	     -6.42498072	      5.81030747	     33.77459641	     92.39408088
      0.42000000	      5.42807605	     -2.76005008	     -4.75072875	      0.32512274	      1.05498989	     -0.16318009	    -13.38621782	      7.62611992	      2.25182301	      1.55384323	      0.02711968	     14.69089382	     14.59032878	     -6.18603880	     22.96251020	     -3.49865699	     -2.81107783	     36.35484189	      0.63451169	     -1.76123212	    -12.04319151	     -6.18603880	     -9.09834641	      2.06999075	      5.47509844	      6.19245616	    -12.53792508	      6.53759995	     42.62885079	    103.13366769	    -18.55999781	     -6.23760905	      5.82305462	     33.74074173	     92.34578495
      0.43000000	      5.45171649	     -2.80200937	     -5.01586920	      0.33728629	      1.05369181	     -0.16303437	    -14.15447683	      7.54741518	      2.35053739	      1.58296019	      0.02762787	     15.24637560	     14.83487521	     -6.24500636	     22.47987950	     -3.40935949	     -2.59257769	     31.98623021	      0.55826503	     -3.34116691	    -11.34614689	     -6.24500636	     -9.17989975	      2.09454107	      5.61457026	      6.91056054	    -12.70827600	      7.06138732	     43.03548411	    103.40896984	    -19.51379340	     -6.03991109	      5.62232305	     33.91529273	     92.31374122
      0.44000000	      5.12610976	     -2.92754972	     -5.22056938	      0.34952442	      1.05175151	     -0.16299600	    -14.48908449	      7.60716185	      2.58141258	      1.76363345	      0.03078121	     15.68351734	     14.75283234	     -6.26044044	     22.38253725	     -3.47682401	     -2.40606472	     27.71860826	      0.48378098	     -4.67970907	     -9.91695719	     -6.26044044	     -8.85539525	      2.25419446	      5.77124879	      7.39520187	    -12.81409034	      7.17020614	     43.57868346	    103.44509008	    -20.34773655	     -5.84803951	      5.63863110	     33.83627917	     92.27651815
      0.45000000	      5.16019570	     -2.99283054	     -5.47675366	      0.36193219	      1.05018927	     -0.16296289	    -15.26671655	      7.54557410	      2.90514058	      1.84907042	      0.03227237	     16.15503232	     14.66160999	     -6.31334207	     21.69142492	     -3.43747022	     -2.34495848	     23.19562776	      0.40484008	     -6.78864405	     -9.50119754	     -6.31334207	     -8.95547766	      2.30935645	      5.90665079	      7.97586027	    -12.93964558	      7.46871633	     44.10573493	    103.71970488	    -21.18550283	     -5.65625649	      5.52114133	     33.92253489	     92.29701851
      0.46000000	      5.00602463	     -3.09733824	     -5.72430601	      0.37451857	      1.04820904	     -0.16290807	    -15.79003138	      7.54741966	      3.15245015	      2.08476824	      0.03638607	     16.68984581	     14.51083258	     -6.33668001	     21.22364278	     -3.52985701	     -2.56628627	     18.91273421	      0.33008948	     -8.30287147	     -8.22588442	     -6.33668001	     -8.80564397	      2.42617206	      6.07538856	      8.41355058	    -13.01923216	      7.62042134	     44.65901702	    103.82430017	    -21.95338679	     -5.47811662	      5.51210853	     33.83883281	     92.29033567
      0.47000000	      4.88017339	     -3.19503032	     -5.96448344	      0.38725812	      1.04613485	     -0.16295958	    -16.33444764	      7.52883164	      3.40105727	      2.34790043	      0.04097859	     17.18015032	     14.39106743	     -6.36163708	     20.68378476	     -3.58749624	     -2.82968030	     14.77899218	      0.25794207	     -9.58428964	     -7.11753328	     -6.36163708	     -8.68502673	      2.53000875	      6.21185885	      8.81788706	    -13.10294872	      7.78734545	     45.22978383	    103.94594806	    -22.69024896	     -5.29731960	      5.49959304	     33.78996836	     92.29678590
      0.48000000	      4.67998913	     -3.28135031	     -6.18102347	      0.40012301	      1.04389127	     -0.16310759	    -16.75282359	      7.50817544	      3.55934529	      2.71053980	      0.04730784	     17.72129093	     14.23442248	     -6.38052549	     20.23114077	     -3.61337842	     -3.04263554	     10.92219655	      0.19062829	    -10.36061338	     -5.94798125	     -6.38052549	     -8.45505994	      2.63511182	      6.36135393	      9.14193965	    -13.19602199	      7.93289435	     45.75156246	    104.02685162	    -23.35097045	     -5.12224947	      5.49558295	     33.70466460	     92.28809270
      0.49000000	      4.35897507	     -3.36525062	     -6.41133579	      0.41303676	      1.04142758	     -0.16335934	    -16.96715973	      7.48321636	      3.73672528	      3.22163837	      0.05622820	     18.12790220	     14.11496874	     -6.39179272	     19.94103218	     -3.61951590	     -3.09103819	      7.46075790	      0.13021479	    -10.39056640	     -4.96152207	     -6.39179272	     -8.08280530	      2.75975494	      6.42957946	      9.44945104	    -13.23889134	      8.02882071	     46.26618087	    104.06434062	    -23.99598690	     -4.93812733	      5.53016932	     33.57181180	     92.26442590
      0.50000000	      4.32422735	     -3.38539239	     -6.62877289	      0.42611145	      1.03938396	     -0.16373606	    -17.50722571	      7.34181729	      3.81561438	      3.69595241	      0.06450654	     18.77787559	     13.97745572	     -6.40858909	     19.32026299	     -3.51466969	     -3.20704489	      4.28865691	      0.07485118	     -9.98376207	     -3.99953233	     -6.40858909	     -8.04377177	      2.78670534	      6.61211911	      9.68900732	    -13.34937216	      8.17828026	     46.77498424	    104.14507814	    -24.45004513	     -4.78492722	      5.55935559	     33.40708402	     92.24382893
